<svg width="20" height="20" viewBox="0 0 20 20" fill="none" xmlns="http://www.w3.org/2000/svg">
<path d="M15.343 1.47507L11.4091 5.40899L11.9394 8.06064L14.5911 8.59097L18.525 4.65705L18.5254 4.65688C19.0123 5.80629 19.1288 7.07891 18.8585 8.29759C18.5883 9.51628 17.9448 10.6204 17.0177 11.4563C16.0906 12.2921 14.9259 12.8181 13.6859 12.9611C12.4458 13.104 11.192 12.8568 10.099 12.2538L10.0991 12.2536L4.84106 18.341C4.41902 18.7625 3.84685 18.9992 3.25034 18.9991C2.65382 18.9989 2.08179 18.7619 1.65999 18.3401C1.23819 17.9183 1.00115 17.3462 1.00098 16.7497C1.00081 16.1532 1.23752 15.581 1.65908 15.159L7.7464 9.90098L7.74627 9.90105C7.14326 8.80807 6.89603 7.55427 7.03897 6.3142C7.18191 5.07412 7.70793 3.90946 8.54379 2.98234C9.37965 2.05521 10.4838 1.41175 11.7025 1.14153C12.9211 0.871305 14.1938 0.98776 15.3432 1.47468L15.343 1.47507Z" stroke="#172765" stroke-width="1.5" stroke-linecap="round" stroke-linejoin="round"/>
</svg>
